<svg width="485.13128662109375px" height="69.19999999999999px" xmlns="http://www.w3.org/2000/svg" viewBox="7.434356689453125 40.400000000000006 485.13128662109375 69.19999999999999" style="background: none;" preserveAspectRatio="xMidYMid"><defs><filter id="editing-neon" x="-100%" y="-100%" width="300%" height="300%"><feFlood flood-color="#0a7142" result="flood"></feFlood><feComposite operator="in" in="flood" in2="SourceAlpha" result="color"></feComposite><feFlood flood-color="#0a7142" result="flood2"></feFlood><feComposite operator="in" in="flood2" in2="SourceAlpha" result="color2"></feComposite><feMorphology operator="dilate" radius="2" in="color" result="dilate"></feMorphology><feGaussianBlur stdDeviation="6" in="color" result="blur1"></feGaussianBlur><feGaussianBlur stdDeviation="2.5" in="color" result="blur2"></feGaussianBlur><feGaussianBlur stdDeviation="1" in="SourceAlpha" result="blur3"></feGaussianBlur><feGaussianBlur stdDeviation="6" in="dilate" result="blur4"></feGaussianBlur><feConvolveMatrix in="color2" result="conv" order="3,3" divisor="1" kernelMatrix="1 1 1  1 1 1  1 1 1"></feConvolveMatrix><feMerge><feMergeNode in="blur1"></feMergeNode><feMergeNode in="blur2"></feMergeNode><feMergeNode in="blur4"></feMergeNode><feMergeNode in="blur3"></feMergeNode><feMergeNode in="blur3"></feMergeNode><feMergeNode in="blur3"></feMergeNode><feMergeNode in="blur3"></feMergeNode><feMergeNode in="conv"></feMergeNode><feMergeNode in="SourceGraphic"></feMergeNode></feMerge></filter></defs><g filter="url(#editing-neon)"><g transform="translate(80.97997808456421, 86.41500186920166)"><path d="M16.11-14.85L16.11-14.85Q16.11-12.63 14.73-11.17L14.73-11.17L14.73-11.17Q13.35-9.72 11.07-9.15L11.07-9.15L17.22 0L14.10 0L8.43-8.85L5.64-8.85L5.64 0L3.06 0L3.06-20.67L8.34-20.67L8.34-20.67Q12.18-20.67 14.14-19.20L14.14-19.20L14.14-19.20Q16.11-17.73 16.11-14.85L16.11-14.85ZM13.35-14.85L13.35-14.85Q13.35-16.83 12.21-17.70L12.21-17.70L12.21-17.70Q11.07-18.57 8.64-18.57L8.64-18.57L5.64-18.57L5.64-10.89L8.67-10.89L8.67-10.89Q10.98-10.89 12.16-11.83L12.16-11.83L12.16-11.83Q13.35-12.78 13.35-14.85L13.35-14.85ZM27.03-16.14L27.03-16.14Q30.30-16.14 32.05-13.93L32.05-13.93L32.05-13.93Q33.81-11.73 33.81-7.92L33.81-7.92L33.81-7.92Q33.81-4.20 32.02-1.93L32.02-1.93L32.02-1.93Q30.24 0.33 27 0.33L27 0.33L27 0.33Q23.73 0.33 21.96-1.88L21.96-1.88L21.96-1.88Q20.19-4.08 20.19-7.89L20.19-7.89L20.19-7.89Q20.19-11.64 21.98-13.89L21.98-13.89L21.98-13.89Q23.76-16.14 27.03-16.14L27.03-16.14ZM27.03-14.07L27.03-14.07Q24.96-14.07 23.94-12.54L23.94-12.54L23.94-12.54Q22.92-11.01 22.92-7.89L22.92-7.89L22.92-7.89Q22.92-4.77 23.93-3.25L23.93-3.25L23.93-3.25Q24.93-1.74 27-1.74L27-1.74L27-1.74Q29.07-1.74 30.07-3.25L30.07-3.25L30.07-3.25Q31.08-4.77 31.08-7.92L31.08-7.92L31.08-7.92Q31.08-11.04 30.07-12.55L30.07-12.55L30.07-12.55Q29.07-14.07 27.03-14.07L27.03-14.07ZM45.03-16.14L45.03-16.14Q48.30-16.14 50.05-13.93L50.05-13.93L50.05-13.93Q51.81-11.73 51.81-7.92L51.81-7.92L51.81-7.92Q51.81-4.20 50.02-1.93L50.02-1.93L50.02-1.93Q48.24 0.33 45 0.33L45 0.33L45 0.33Q41.73 0.33 39.96-1.88L39.96-1.88L39.96-1.88Q38.19-4.08 38.19-7.89L38.19-7.89L38.19-7.89Q38.19-11.64 39.98-13.89L39.98-13.89L39.98-13.89Q41.76-16.14 45.03-16.14L45.03-16.14ZM45.03-14.07L45.03-14.07Q42.96-14.07 41.94-12.54L41.94-12.54L41.94-12.54Q40.92-11.01 40.92-7.89L40.92-7.89L40.92-7.89Q40.92-4.77 41.92-3.25L41.92-3.25L41.92-3.25Q42.93-1.74 45-1.74L45-1.74L45-1.74Q47.07-1.74 48.08-3.25L48.08-3.25L48.08-3.25Q49.08-4.77 49.08-7.92L49.08-7.92L49.08-7.92Q49.08-11.04 48.08-12.55L48.08-12.55L48.08-12.55Q47.07-14.07 45.03-14.07L45.03-14.07ZM69.57-0.81L69.57-0.81Q68.76-0.27 67.61 0.03L67.61 0.03L67.61 0.03Q66.45 0.33 65.31 0.33L65.31 0.33L65.31 0.33Q62.82 0.33 61.41-0.97L61.41-0.97L61.41-0.97Q60-2.28 60-4.41L60-4.41L60-13.83L56.37-13.83L56.37-15.81L60-15.81L60-19.38L62.52-19.68L62.52-15.81L68.01-15.81L67.68-13.83L62.52-13.83L62.52-4.44L62.52-4.44Q62.52-3.09 63.24-2.43L63.24-2.43L63.24-2.43Q63.96-1.77 65.55-1.77L65.55-1.77L65.55-1.77Q67.17-1.77 68.58-2.52L68.58-2.52L69.57-0.81ZM100.74-21L100.74-21Q102.66-21 104.04-20.50L104.04-20.50L104.04-20.50Q105.42-20.01 106.74-18.99L106.74-18.99L105.27-17.28L105.27-17.28Q103.44-18.81 100.92-18.81L100.92-18.81L100.92-18.81Q98.13-18.81 96.38-16.79L96.38-16.79L96.38-16.79Q94.62-14.76 94.62-10.35L94.62-10.35L94.62-10.35Q94.62-5.97 96.33-3.93L96.33-3.93L96.33-3.93Q98.04-1.89 100.89-1.89L100.89-1.89L100.89-1.89Q102.45-1.89 103.56-2.34L103.56-2.34L103.56-2.34Q104.67-2.79 105.69-3.60L105.69-3.60L107.04-1.92L107.04-1.92Q104.73 0.33 100.86 0.33L100.86 0.33L100.86 0.33Q98.31 0.33 96.27-0.91L96.27-0.91L96.27-0.91Q94.23-2.16 93.06-4.56L93.06-4.56L93.06-4.56Q91.89-6.96 91.89-10.35L91.89-10.35L91.89-10.35Q91.89-13.71 93.08-16.13L93.08-16.13L93.08-16.13Q94.26-18.54 96.28-19.77L96.28-19.77L96.28-19.77Q98.31-21 100.74-21L100.74-21ZM117.03-16.14L117.03-16.14Q120.30-16.14 122.06-13.93L122.06-13.93L122.06-13.93Q123.81-11.73 123.81-7.92L123.81-7.92L123.81-7.92Q123.81-4.20 122.03-1.93L122.03-1.93L122.03-1.93Q120.24 0.33 117 0.33L117 0.33L117 0.33Q113.73 0.33 111.96-1.88L111.96-1.88L111.96-1.88Q110.19-4.08 110.19-7.89L110.19-7.89L110.19-7.89Q110.19-11.64 111.97-13.89L111.97-13.89L111.97-13.89Q113.76-16.14 117.03-16.14L117.03-16.14ZM117.03-14.07L117.03-14.07Q114.96-14.07 113.94-12.54L113.94-12.54L113.94-12.54Q112.92-11.01 112.92-7.89L112.92-7.89L112.92-7.89Q112.92-4.77 113.92-3.25L113.92-3.25L113.92-3.25Q114.93-1.74 117-1.74L117-1.74L117-1.74Q119.07-1.74 120.08-3.25L120.08-3.25L120.08-3.25Q121.08-4.77 121.08-7.92L121.08-7.92L121.08-7.92Q121.08-11.04 120.08-12.55L120.08-12.55L120.08-12.55Q119.07-14.07 117.03-14.07L117.03-14.07ZM135.03-16.14L135.03-16.14Q138.30-16.14 140.06-13.93L140.06-13.93L140.06-13.93Q141.81-11.73 141.81-7.92L141.81-7.92L141.81-7.92Q141.81-4.20 140.03-1.93L140.03-1.93L140.03-1.93Q138.24 0.33 135 0.33L135 0.33L135 0.33Q131.73 0.33 129.96-1.88L129.96-1.88L129.96-1.88Q128.19-4.08 128.19-7.89L128.19-7.89L128.19-7.89Q128.19-11.64 129.97-13.89L129.97-13.89L129.97-13.89Q131.76-16.14 135.03-16.14L135.03-16.14ZM135.03-14.07L135.03-14.07Q132.96-14.07 131.94-12.54L131.94-12.54L131.94-12.54Q130.92-11.01 130.92-7.89L130.92-7.89L130.92-7.89Q130.92-4.77 131.93-3.25L131.93-3.25L131.93-3.25Q132.93-1.74 135-1.74L135-1.74L135-1.74Q137.07-1.74 138.07-3.25L138.07-3.25L138.07-3.25Q139.08-4.77 139.08-7.92L139.08-7.92L139.08-7.92Q139.08-11.04 138.07-12.55L138.07-12.55L138.07-12.55Q137.07-14.07 135.03-14.07L135.03-14.07ZM153.18-22.17L153.18-3.90L153.18-3.90Q153.18-1.77 155.79-1.77L155.79-1.77L155.79-1.77Q157.02-1.77 158.43-2.31L158.43-2.31L159.09-0.48L159.09-0.48Q157.59 0.33 155.34 0.33L155.34 0.33L155.34 0.33Q153.21 0.33 151.94-0.84L151.94-0.84L151.94-0.84Q150.66-2.01 150.66-4.02L150.66-4.02L150.66-20.16L145.80-20.16L145.80-22.17L153.18-22.17ZM189.06-2.97L194.64-20.67L197.25-20.67L190.35 0L187.65 0L180.75-20.67L183.54-20.67L189.06-2.97ZM203.52-15.81L203.52-4.59L203.52-4.59Q203.52-3.06 204.16-2.35L204.16-2.35L204.16-2.35Q204.81-1.65 206.19-1.65L206.19-1.65L206.19-1.65Q207.45-1.65 208.62-2.37L208.62-2.37L208.62-2.37Q209.79-3.09 210.48-4.17L210.48-4.17L210.48-15.81L213-15.81L213 0L210.84 0L210.63-2.13L210.63-2.13Q209.70-0.96 208.34-0.32L208.34-0.32L208.34-0.32Q206.97 0.33 205.56 0.33L205.56 0.33L205.56 0.33Q203.31 0.33 202.16-0.87L202.16-0.87L202.16-0.87Q201-2.07 201-4.32L201-4.32L201-15.81L203.52-15.81ZM221.01-7.02L221.01-7.02Q221.10-4.41 222.38-3.09L222.38-3.09L222.38-3.09Q223.65-1.77 225.60-1.77L225.60-1.77L225.60-1.77Q226.77-1.77 227.75-2.11L227.75-2.11L227.75-2.11Q228.72-2.46 229.83-3.18L229.83-3.18L231-1.50L231-1.50Q229.89-0.63 228.47-0.15L228.47-0.15L228.47-0.15Q227.04 0.33 225.60 0.33L225.60 0.33L225.60 0.33Q222.18 0.33 220.28-1.91L220.28-1.91L220.28-1.91Q218.37-4.14 218.37-7.89L218.37-7.89L218.37-7.89Q218.37-10.26 219.21-12.13L219.21-12.13L219.21-12.13Q220.05-14.01 221.61-15.07L221.61-15.07L221.61-15.07Q223.17-16.14 225.24-16.14L225.24-16.14L225.24-16.14Q228.24-16.14 229.97-14.05L229.97-14.05L229.97-14.05Q231.69-11.97 231.69-8.37L231.69-8.37L231.69-8.37Q231.69-7.68 231.63-7.02L231.63-7.02L221.01-7.02ZM225.27-14.07L225.27-14.07Q223.44-14.07 222.30-12.76L222.30-12.76L222.30-12.76Q221.16-11.46 221.01-8.94L221.01-8.94L229.23-8.94L229.23-8.94Q229.20-11.43 228.15-12.75L228.15-12.75L228.15-12.75Q227.10-14.07 225.27-14.07L225.27-14.07ZM256.08 0L256.08-20.67L258.66-20.67L258.66-2.31L268.11-2.31L267.78 0L256.08 0ZM284.34-3.45L284.34-3.45Q284.34-2.52 284.64-2.08L284.64-2.08L284.64-2.08Q284.94-1.65 285.63-1.44L285.63-1.44L285 0.36L285 0.36Q282.69 0.06 282.12-1.89L282.12-1.89L282.12-1.89Q281.28-0.81 280.00-0.24L280.00-0.24L280.00-0.24Q278.73 0.33 277.17 0.33L277.17 0.33L277.17 0.33Q274.80 0.33 273.44-0.99L273.44-0.99L273.44-0.99Q272.07-2.31 272.07-4.53L272.07-4.53L272.07-4.53Q272.07-6.96 273.98-8.28L273.98-8.28L273.98-8.28Q275.88-9.60 279.45-9.60L279.45-9.60L281.79-9.60L281.79-10.89L281.79-10.89Q281.79-12.57 280.83-13.30L280.83-13.30L280.83-13.30Q279.87-14.04 278.04-14.04L278.04-14.04L278.04-14.04Q276.24-14.04 273.93-13.23L273.93-13.23L273.24-15.15L273.24-15.15Q276.03-16.14 278.43-16.14L278.43-16.14L278.43-16.14Q281.31-16.14 282.82-14.79L282.82-14.79L282.82-14.79Q284.34-13.44 284.34-11.04L284.34-11.04L284.34-3.45ZM277.80-1.56L277.80-1.56Q278.97-1.56 280.04-2.16L280.04-2.16L280.04-2.16Q281.10-2.76 281.79-3.81L281.79-3.81L281.79-7.86L279.51-7.86L279.51-7.86Q276.99-7.86 275.88-7.02L275.88-7.02L275.88-7.02Q274.77-6.18 274.77-4.56L274.77-4.56L274.77-4.56Q274.77-1.56 277.80-1.56L277.80-1.56ZM293.52-13.74L293.52-13.74Q295.35-16.14 298.05-16.14L298.05-16.14L298.05-16.14Q301.08-16.14 302.52-13.98L302.52-13.98L302.52-13.98Q303.96-11.82 303.96-7.92L303.96-7.92L303.96-7.92Q303.96-4.20 302.31-1.93L302.31-1.93L302.31-1.93Q300.66 0.33 297.69 0.33L297.69 0.33L297.69 0.33Q294.96 0.33 293.40-1.65L293.40-1.65L293.22 0L291 0L291-22.17L293.52-22.47L293.52-13.74ZM297.12-1.71L297.12-1.71Q299.10-1.71 300.17-3.27L300.17-3.27L300.17-3.27Q301.23-4.83 301.23-7.92L301.23-7.92L301.23-7.92Q301.23-10.98 300.29-12.54L300.29-12.54L300.29-12.54Q299.34-14.10 297.48-14.10L297.48-14.10L297.48-14.10Q296.28-14.10 295.27-13.38L295.27-13.38L295.27-13.38Q294.27-12.66 293.52-11.58L293.52-11.58L293.52-3.75L293.52-3.75Q294.15-2.79 295.08-2.25L295.08-2.25L295.08-2.25Q296.01-1.71 297.12-1.71L297.12-1.71ZM314.40-1.74L314.40-1.74Q316.20-1.74 317.25-2.43L317.25-2.43L317.25-2.43Q318.30-3.12 318.30-4.26L318.30-4.26L318.30-4.26Q318.30-5.04 318.03-5.54L318.03-5.54L318.03-5.54Q317.76-6.03 316.95-6.43L316.95-6.43L316.95-6.43Q316.14-6.84 314.49-7.26L314.49-7.26L314.49-7.26Q311.73-7.95 310.41-8.92L310.41-8.92L310.41-8.92Q309.09-9.90 309.09-11.82L309.09-11.82L309.09-11.82Q309.09-13.80 310.74-14.97L310.74-14.97L310.74-14.97Q312.39-16.14 315.09-16.14L315.09-16.14L315.09-16.14Q318.39-16.14 320.85-14.40L320.85-14.40L319.71-12.66L319.71-12.66Q318.72-13.35 317.64-13.72L317.64-13.72L317.64-13.72Q316.56-14.10 315.15-14.10L315.15-14.10L315.15-14.10Q311.73-14.10 311.73-12.03L311.73-12.03L311.73-12.03Q311.73-11.31 312.11-10.86L312.11-10.86L312.11-10.86Q312.48-10.41 313.33-10.06L313.33-10.06L313.33-10.06Q314.19-9.72 315.90-9.24L315.90-9.24L315.90-9.24Q318.48-8.55 319.75-7.48L319.75-7.48L319.75-7.48Q321.03-6.42 321.03-4.38L321.03-4.38L321.03-4.38Q321.03-2.01 319.11-0.84L319.11-0.84L319.11-0.84Q317.19 0.33 314.40 0.33L314.40 0.33L314.40 0.33Q310.68 0.33 308.22-1.80L308.22-1.80L309.63-3.45L309.63-3.45Q310.59-2.67 311.82-2.21L311.82-2.21L311.82-2.21Q313.05-1.74 314.40-1.74L314.40-1.74ZM334.35-20.67L334.08-6.81L331.83-6.81L331.53-20.67L334.35-20.67ZM332.97-3.69L332.97-3.69Q333.84-3.69 334.41-3.10L334.41-3.10L334.41-3.10Q334.98-2.52 334.98-1.68L334.98-1.68L334.98-1.68Q334.98-0.81 334.41-0.24L334.41-0.24L334.41-0.24Q333.84 0.33 332.97 0.33L332.97 0.33L332.97 0.33Q332.13 0.33 331.55-0.26L331.55-0.26L331.55-0.26Q330.96-0.84 330.96-1.68L330.96-1.68L330.96-1.68Q330.96-2.52 331.55-3.10L331.55-3.10L331.55-3.10Q332.13-3.69 332.97-3.69L332.97-3.69Z" fill="none" stroke="#abffcd" stroke-width="0.4"></path></g></g><style>text {
  font-size: 64px;
  font-family: Arial Black;
  dominant-baseline: central;
  text-anchor: middle;
}</style></svg>